# AST/ASF file generated using VICON BodyLanguage
# -----------------------------------------------
:version 1.10
:name VICON
:units
  mass 1.0
  length 0.45
  angle deg
:documentation
   .ast/.asf automatically generated from VICON data using
   VICON BodyBuilder and BodyLanguage model FoxedUp or BRILLIANT.MOD
:root
   order TX TY TZ RX RY RZ
   axis XYZ
   position 0 0 0  
   orientation 0 0 0 
:bonedata
  begin
     id 1 
     name lhipjoint
     direction 0.588788 -0.725889 0.355548 
     length 2.37778 
     axis 0 0 0  XYZ
  end
  begin
     id 2 
     name lfemur
     direction 0.34202 -0.939693 0  
     length 6.86393  
     axis 0 0 20  XYZ
    dof rx ry rz
    limits (-160.0 20.0)
           (-70.0 70.0)
           (-60.0 70.0)
  end
  begin
     id 3 
     name ltibia
     direction 0.34202 -0.939693 0   
     length 7.32851   
     axis 0 0 20   XYZ
    dof rx
    limits (-10.0 170.0)
  end
  begin
     id 4 
     name lfoot
     direction 0.0626533 -0.172138 0.983078   
     length 1.98929   
     axis -90 7.62852e-016 20   XYZ
    dof rx rz
    limits (-45.0 90.0)
           (-70.0 20.0)
  end
  begin
     id 5 
     name ltoes
     direction 1.53647e-011 -4.21734e-011 1   
     length 1.00479   
     axis -90 7.62852e-016 20   XYZ
    dof rx
    limits (-90.0 20.0)
  end
  begin
     id 6 
     name rhipjoint
     direction -0.59141 -0.724168 0.354705   
     length 2.38343  
     axis 0 0 0  XYZ 
  end
  begin
     id 7 
     name rfemur
     direction -0.34202 -0.939693 0   
     length 6.95589   
     axis 0 0 -20   XYZ
    dof rx ry rz
    limits (-160.0 20.0)
           (-70.0 70.0)
           (-70.0 60.0)
  end
  begin
     id 8 
     name rtibia
     direction -0.34202 -0.939693 0   
     length 7.32327   
     axis 0 0 -20   XYZ
    dof rx
    limits (-10.0 170.0)
 end
 begin
     id 9 
     name rfoot
     direction -0.0660461 -0.18146 0.981178   
     length 1.85272  
     axis -90 -7.62852e-016 -20   XYZ
    dof rx rz
    limits (-45.0 90.0)
           (-20.0 70.0)
  end
  begin
     id 10 
     name rtoes
     direction -1.53586e-011 -4.21988e-011 1   
     length 0.93746   
     axis -90 -7.62852e-016 -20   XYZ
    dof rx
    limits (-90.0 20.0)
  end
  begin
     id 11 
     name lowerback
     direction -0.0107982 0.991059 0.13299   
     length 1.98691   
     axis 0 0 0   XYZ
    dof rx ry rz
    limits (-20.0 45.0)
           (-30.0 30.0)
           (-30.0 30.0)
  end
  begin
     id 12 
     name upperback
     direction 0.0076296 0.999916 0.0104576   
     length 1.99501   
     axis 0 0 0   XYZ
    dof rx ry rz
    limits (-20.0 45.0)
           (-30.0 30.0)
           (-30.0 30.0)
  end
  begin
     id 13 
     name thorax
     direction 0.01176 0.998615 -0.0512909   
     length 2.03144   
     axis 0 0 0   XYZ
    dof rx ry rz
    limits (-20.0 45.0)
           (-30.0 30.0)
           (-30.0 30.0)
  end
  begin
     id 14 
     name lowerneck
     direction -0.0171909 0.999644 0.0204011   
     length 1.71818   
     axis 0 0 0   XYZ
    dof rx ry rz
    limits (-20.0 45.0)
           (-30.0 30.0)
           (-30.0 30.0)
  end
  begin
     id 15 
     name upperneck
     direction 0.0250902 0.997482 -0.0663316   
     length 1.66199   
     axis 0 0 0   XYZ
    dof rx ry rz
    limits (-20.0 45.0)
           (-30.0 30.0)
           (-30.0 30.0)
  end
  begin
     id 16
     name head
     direction 0.00881535 0.99956 -0.0283365  
     length 1.81545  
     axis 0 0 0   XYZ
    dof rx ry rz
    limits (-20.0 45.0)
           (-30.0 30.0)
           (-30.0 30.0)
  end
  begin
     id 17 
     name lclavicle
     direction 0.840411 0.486876 -0.238035  
     length 3.30409  
     axis 0 0 0   XYZ
    dof ry rz
    limits (-20.0 10.0)
           (0.0 20.0)
  end
  begin
     id 18 
     name lhumerus
     direction 1 -4.48977e-011 -5.16239e-027   
     length 4.62672   
     axis 180 -30 -90   XYZ
    dof rx ry rz
    limits (-60.0 90.0)
           (-90.0 90.0)
           (-90.0 90.0)
  end
  begin
     id 19
     name lradius
     direction 1 -4.48977e-011 -8.71171e-027   
     length 3.11018   
     axis 180 -30 -90   XYZ
    dof rx
    limits (-10.0 170.0)
  end
  begin
     id 20
     name lwrist
     direction 1 -4.48912e-011 -1.03764e-026   
     length 1.55509   
     axis 9.09556e-015 90 90   XYZ
    dof ry
    limits (-180.0 0.0)
 end
  begin
     id 21 
     name lhand
     direction 1 -4.49072e-011 -2.07528e-026   
     length 0.743834   
     axis 1.3242e-014 90 90   XYZ
    dof rx rz
    limits (-90.0 90.0)
           (-45.0 45.0)
  end
  begin
     id 22 
     name lfingers
     direction 1 -4.48909e-011 -4.15056e-026   
     length 0.599698   
     axis 2.64841e-014 90 90   XYZ
    dof rx
    limits (0.0 90.0)
  end
  begin
     id 23
     name lthumb
     direction 0.707107 -6.35013e-011 0.707107   
     length 0.86105   
     axis -90 45 2.85299e-015   XYZ
    dof rx rz
    limits (-45.0 45.0)
           (-45.0 45.0)
  end
  begin
     id 24 
     name rclavicle
     direction -0.835208 0.500237 -0.228452   
     length 3.2716  
     axis 0 0 0   XYZ 
    dof ry rz
    limits (-10.0 20.0)
           (-20.0 0.0)
  end
  begin
     id 25 
     name rhumerus
     direction -1 -4.48978e-011 -5.1953e-028  
     length 4.55919   
     axis 180 30 90   XYZ
    dof rx ry rz
    limits (-90.0 60.0)
           (-90.0 90.0)
           (-90.0 90.0)
  end
  begin
     id 26 
     name rradius
     direction -1 -4.48961e-011 -5.99546e-027   
     length 3.22748   
     axis 180 30 90   XYZ
    dof rx
    limits (-10.0 170.0)
  end
  begin
     id 27 
     name rwrist
     direction -1 -4.48986e-011 -1.03764e-026   
     length 1.61374   
     axis 9.09556e-015 -90 -90   XYZ
    dof ry
    limits (-180.0 0.0)
  end
  begin
     id 28
     name rhand
     direction -1 -4.4899e-011 -2.07528e-026   
     length 0.700882   
     axis 1.3242e-014 -90 -90   XYZ
    dof rx rz
    limits (-90.0 90.0)
           (-45.0 45.0)
  end
  begin
     id 29
     name rfingers
     direction -1 -4.48991e-011 -4.15056e-026   
     length 0.565069   
     axis 2.64841e-014 -90 -90   XYZ
    dof rx
    limits (0.0 90.0)
  end
  begin
     id 30
     name rthumb
     direction -0.707107 -6.34804e-011 0.707107   
     length 0.811329   
     axis -90 -45 -2.85299e-015   XYZ
    dof rx rz
    limits (-45.0 45.0)
           (-45.0 45.0)
  end
:hierarchy
  begin
    root lhipjoint rhipjoint lowerback
    lhipjoint lfemur
    lfemur ltibia
    ltibia lfoot
    lfoot ltoes
    rhipjoint rfemur
    rfemur rtibia
    rtibia rfoot
    rfoot rtoes
    lowerback upperback
    upperback thorax
    thorax lowerneck lclavicle rclavicle
    lowerneck upperneck
    upperneck head
    lclavicle lhumerus
    lhumerus lradius
    lradius lwrist
    lwrist lhand lthumb
    lhand lfingers
    rclavicle rhumerus
    rhumerus rradius
    rradius rwrist
    rwrist rhand rthumb
    rhand rfingers
  end

#!OML:ASF F:\VICON\USERDATA\INSTALL\SteveWalk\SteveWalk.ASF
:FULLY-SPECIFIED
:DEGREES
363
root 0.361767 16.2934 34.229 16.5923 1.84338 -1.09568
lowerback -15.3845 -0.196773 3.19871
upperback -4.8034 -0.855646 2.55671
thorax 3.51834 -0.41548 0.722893
lowerneck -3.84996 -0.722767 -0.349646
upperneck 10.2308 -0.70443 -2.39272
head 4.01603 -0.469394 -0.767261
rclavicle 1.03795e-014 6.36111e-015
rhumerus -33.1484 -21.7856 -75.509
rradius 18.6976
rwrist 11.3768
rhand -17.4126 -33.4636
rfingers 7.12502
rthumb 8.83724 -63.2586
lclavicle 1.03795e-014 6.36111e-015
lhumerus -34.5624 6.33134 86.7816
lradius 26.3566
lwrist -3.30236
lhand -17.6724 -18.685
lfingers 7.12502
lthumb 8.58648 11.1204
rfemur -31.1882 -2.6053 25.185
rtibia 34.466
rfoot -20.0704 6.38974
rtoes -5.44576
lfemur -38.6963 2.83969 -18.9613
ltibia 73.2447
lfoot -3.05891 -0.577323
ltoes -5.61362
364
root 0.354158 16.2942 34.4279 16.6414 1.73272 -1.27017
lowerback -15.481 -0.1025 3.32539
upperback -4.83807 -0.753521 2.54418
thorax 3.5322 -0.36507 0.65649
lowerneck -3.70935 -0.740217 -0.450471
upperneck 10.2583 -0.730212 -2.30394
head 3.99807 -0.481468 -0.720142
rclavicle 1.9168e-015 -1.03368e-014
rhumerus -31.5208 -19.3248 -77.468
rradius 19.7464
rwrist 9.08699
rhand -18.201 -33.2061
rfingers 7.12502
rthumb 8.07633 -63.0318
lclavicle 1.9168e-015 -1.03368e-014
lhumerus -34.9542 8.125 85.6563
lradius 23.6735
lwrist -6.14421
lhand -16.815 -18.2884
lfingers 7.12502
lthumb 9.4139 11.4814
rfemur -30.3424 -2.87662 25.4633
rtibia 34.2764
rfoot -20.763 6.6044
rtoes -5.59186
lfemur -39.9186 3.02448 -18.9571
ltibia 72.443
lfoot -4.40198 0.163696
ltoes -4.44817
365
root 0.341288 16.294 34.6206 16.6658 1.46879 -1.36253
lowerback -15.4345 0.0321039 3.29384
upperback -4.91581 -0.56386 2.49821
thorax 3.42721 -0.273059 0.660313
lowerneck -3.81399 -0.800485 -0.377288
upperneck 10.6428 -0.796359 -2.4168
head 4.15533 -0.520111 -0.778808
rclavicle 2.83889e-015 -2.62396e-014
rhumerus -30.1459 -17.0908 -79.0792
rradius 20.8531
rwrist 7.27378
rhand -18.5593 -33.0146
rfingers 7.12502
rthumb 7.73052 -62.8533
lclavicle 2.83889e-015 -2.62396e-014
lhumerus -35.5344 10.2331 84.197
lradius 20.8953
lwrist -9.71152
lhand -16.4217 -18.5959
lfingers 7.12502
lthumb 9.7933 11.1564
rfemur -29.5468 -2.95067 25.6121
rtibia 34.2362
rfoot -21.4154 6.6694
rtoes -6.14028
lfemur -41.0552 3.32309 -19.0624
ltibia 71.4474
lfoot -5.51612 0.89969
ltoes -4.09495
366
root 0.326439 16.2823 34.8077 16.7467 1.0461 -1.17957
lowerback -15.3861 0.107719 2.8964
upperback -5.00735 -0.394624 2.39365
thorax 3.30966 -0.190863 0.804774
lowerneck -3.59576 -0.748625 -0.233614
upperneck 10.6228 -0.729176 -2.52404
head 4.10511 -0.484623 -0.834838
rclavicle -7.11898e-015 -7.95139e-016
rhumerus -28.8072 -14.7562 -80.6067
rradius 21.9132
rwrist 5.73497
rhand -18.5756 -33.0602
rfingers 7.12502
rthumb 7.71479 -62.8995
lclavicle -7.11898e-015 -7.95139e-016
lhumerus -36.5263 12.9789 82.1589
lradius 18.9469
lwrist -14.5558
lhand -15.3685 -17.5584
lfingers 7.12502
lthumb 10.8094 12.1435
rfemur -28.936 -2.83431 25.4089
rtibia 34.288
rfoot -21.9336 6.75635
rtoes -6.03632
lfemur -42.2577 3.63698 -19.4947
ltibia 70.2936
lfoot -6.45002 1.65486
ltoes -4.03801
367
root 0.31503 16.2677 34.9968 16.7806 0.632881 -0.946222
lowerback -15.377 0.11685 2.4796
upperback -5.01321 -0.314712 2.25954
thorax 3.30168 -0.151316 0.913274
lowerneck -3.7381 -0.706893 -0.0389591
upperneck 10.8121 -0.676113 -2.5872
head 4.20174 -0.455864 -0.89149
rclavicle -1.72073e-015 1.59028e-015
rhumerus -27.4836 -12.4007 -82.0854
rradius 23.014
rwrist 4.21742
rhand -18.5818 -33.1648
rfingers 7.12502
rthumb 7.70879 -63.0042
lclavicle -1.72073e-015 1.59028e-015
lhumerus -37.6534 16.2203 79.5478
lradius 17.1849
lwrist -19.5978
lhand -14.0363 -16.6898
lfingers 7.12502
lthumb 12.0941 12.9406
rfemur -28.3323 -2.98438 25.197
rtibia 34.3617
rfoot -22.5287 6.849
rtoes -6.57221
lfemur -43.3448 3.88212 -19.9836
ltibia 68.9388
lfoot -7.17374 2.4089
ltoes -5.85348
368
root 0.307693 16.2513 35.1925 16.8958 0.417276 -1.10467
lowerback -15.5775 0.179859 2.55778
upperback -4.98222 -0.251405 2.21591
thorax 3.441 -0.119341 0.835369
lowerneck -3.69827 -0.580642 0.156464
upperneck 10.7067 -0.521257 -2.60898
head 4.15815 -0.371447 -0.924656
rclavicle -5.35166e-015 2.22639e-014
rhumerus -26.2233 -9.9823 -83.3852
rradius 24.198
rwrist 2.30661
rhand -18.6461 -33.204
rfingers 7.12502
rthumb 7.64676 -63.0458
lclavicle -5.35166e-015 2.22639e-014
lhumerus -39.0627 20.4166 76.0223
lradius 15.2087
lwrist -25.9207
lhand -13.1494 -16.7453
lfingers 7.12502
lthumb 12.9491 12.8329
rfemur -27.7034 -3.15278 25.4047
rtibia 34.3755
rfoot -23.2029 6.93324
rtoes -7.39186
lfemur -44.4728 4.05391 -19.9946
ltibia 67.4531
lfoot -7.68047 3.051
ltoes -7.9891
369
root 0.306303 16.2332 35.3934 17.0606 0.277721 -1.23863
lowerback -15.9032 0.288452 2.7619
upperback -4.90979 -0.15302 2.14104
thorax 3.69063 -0.0688759 0.661034
lowerneck -3.73384 -0.475346 0.233694
upperneck 10.6072 -0.380466 -2.67128
head 4.13204 -0.301105 -0.951871
rclavicle -6.29744e-016 -7.95139e-015
rhumerus -24.9423 -7.85562 -84.398
rradius 25.3711
rwrist 0.424162
rhand -18.6809 -33.133
rfingers 7.12502
rthumb 7.61319 -62.976
lclavicle -6.29744e-016 -7.95139e-015
lhumerus -40.8404 24.7695 71.9192
lradius 13.3792
lwrist -32.8157
lhand -12.3561 -16.9515
lfingers 7.12502
lthumb 13.7139 12.5766
rfemur -26.9899 -3.5766 25.6122
rtibia 34.2793
rfoot -24.1222 6.75232
rtoes -10.0119
lfemur -45.5312 4.10343 -20.0153
ltibia 65.7566
lfoot -8.04641 3.69453
ltoes -8.83702
370
root 0.305485 16.2243 35.5961 17.2438 0.109471 -1.29788
lowerback -16.1885 0.406546 2.91096
upperback -4.88477 -0.0300666 2.04194
thorax 3.86991 -0.00673856 0.497397
lowerneck -3.79617 -0.461047 0.184465
upperneck 10.6114 -0.361727 -2.62379
head 4.14619 -0.29203 -0.926835
rclavicle 4.07509e-015 -2.14687e-014
rhumerus -23.8088 -5.91166 -85.1736
rradius 26.602
rwrist -1.24426
rhand -18.6506 -32.9028
rfingers 7.12502
rthumb 7.64238 -62.7448
lclavicle 4.07509e-015 -2.14687e-014
lhumerus -43.4083 29.1286 67.1737
lradius 12.128
lwrist -39.9231
lhand -11.476 -16.5735
lfingers 7.12502
lthumb 14.5619 12.8954
rfemur -26.1844 -4.22796 25.7594
rtibia 34.0263
rfoot -25.0836 6.89506
rtoes -11.5556
lfemur -46.4718 4.1082 -20.1277
ltibia 63.8522
lfoot -8.42353 4.40514
ltoes -8.75148
371
root 0.304617 16.2241 35.796 17.414 -0.146694 -1.13535
lowerback -16.3273 0.436527 2.80907
upperback -4.92253 0.0283047 1.87997
thorax 3.905 0.0213881 0.396076
lowerneck -3.70049 -0.407254 0.285536
upperneck 10.4894 -0.300976 -2.61664
head 4.0845 -0.25626 -0.937522
rclavicle 2.90956e-015 -3.10104e-014
rhumerus -22.7453 -4.09177 -85.9155
rradius 27.7653
rwrist -2.59888
rhand -18.6485 -32.5134
rfingers 7.12502
rthumb 7.64446 -62.3553
lclavicle 2.90956e-015 -3.10104e-014
lhumerus -46.8593 33.2484 61.598
lradius 11.2932
lwrist -46.7228
lhand -9.90161 -15.8766
lfingers 7.12502
lthumb 16.0784 13.4763
rfemur -25.3977 -4.94263 25.6246
rtibia 33.7156
rfoot -25.5625 7.94841
rtoes -8.83294
lfemur -47.2774 4.15442 -20.5562
ltibia 61.7226
lfoot -8.61251 5.21443
ltoes -9.83441
372
root 0.303358 16.2213 35.9927 17.4879 -0.436801 -1.08026
lowerback -16.2641 0.470412 2.75986
upperback -4.96742 0.0894697 1.77567
thorax 3.82476 0.0499881 0.325042
lowerneck -3.65859 -0.354006 0.466546
upperneck 10.3842 -0.231055 -2.75806
head 4.04051 -0.22003 -1.01241
rclavicle 4.22573e-015 1.27222e-014
rhumerus -21.7556 -2.24947 -86.5272
rradius 28.9507
rwrist -3.915
rhand -18.8214 -32.0521
rfingers 7.12502
rthumb 7.47755 -61.9
lclavicle 4.22573e-015 1.27222e-014
lhumerus -51.8246 38.0348 53.8854
lradius 10.3575
lwrist -55.0794
lhand -8.79208 -15.6156
lfingers 7.12502
lthumb 17.1466 13.6478
rfemur -24.5442 -5.50042 25.5472
rtibia 33.3759
rfoot -25.7551 9.25871
rtoes -4.49924
lfemur -47.8568 4.2782 -20.8672
ltibia 59.3144
lfoot -8.69397 5.96206
ltoes -11.8436
373
root 0.302252 16.2133 36.1898 17.5243 -0.699403 -0.996016
lowerback -16.1747 0.495191 2.64356
upperback -4.97914 0.147917 1.69875
thorax 3.76572 0.0778047 0.320177
lowerneck -3.67218 -0.298745 0.578567
upperneck 10.3003 -0.150332 -2.92167
head 4.01581 -0.182629 -1.08266
rclavicle -2.54227e-015 -8.74653e-015
rhumerus -20.8073 -0.444946 -86.9736
rradius 30.1667
rwrist -5.16192
rhand -19.1163 -31.2369
rfingers 7.12502
rthumb 7.19286 -61.0946
lclavicle -2.54227e-015 -8.74653e-015
lhumerus -52.7208 37.6428 53.2805
lradius 9.69803
lwrist -56.0508
lhand -8.46215 -14.7446
lfingers 7.12502
lthumb 17.4641 14.4909
rfemur -23.6398 -5.82985 25.3792
rtibia 33.0412
rfoot -25.9992 10.0789
rtoes -1.80306
lfemur -48.2199 4.23869 -21.0418
ltibia 56.4908
lfoot -8.65305 6.46962
ltoes -12.2791
